<svg width="336" height="116" viewBox="0 0 336 116" fill="none" xmlns="http://www.w3.org/2000/svg">
<path d="M152.039 78.3122V70.5858H169.407V89.0819C167.776 91.5467 165.426 93.4478 162.676 94.5257C159.452 95.8963 155.979 96.5823 152.477 96.5403C148.358 96.6155 144.294 95.5869 140.706 93.5613C137.304 91.6011 134.528 88.7135 132.701 85.2348C130.754 81.4587 129.775 77.2568 129.854 73.0077C129.765 68.7221 130.779 64.4856 132.797 60.7055C134.663 57.246 137.467 54.3854 140.888 52.4541C144.367 50.4919 148.302 49.4828 152.295 49.5286C156.114 49.4377 159.881 50.4216 163.168 52.3684C166.02 53.9858 168.224 56.5416 169.407 59.6018L161.916 63.8882C161.053 61.997 159.651 60.4038 157.886 59.3092C156.12 58.2146 154.071 57.6676 151.996 57.7372C149.671 57.7056 147.388 58.3536 145.425 59.6018C143.42 60.9182 141.829 62.7758 140.834 64.9599C139.722 67.5288 139.148 70.2989 139.148 73.0988C139.148 75.8986 139.722 78.6687 140.834 81.2377C141.88 83.4648 143.563 85.33 145.671 86.5958C147.885 87.872 150.405 88.5168 152.959 88.4604C154.334 88.541 155.711 88.3466 157.01 87.8884C158.309 87.4303 159.504 86.7176 160.525 85.792V78.3979L152.039 78.3122Z" fill="#101010"/>
<path d="M184.803 96.9631H176.242V49.7156H184.803V96.9631Z" fill="#101010"/>
<path d="M214.675 63.5989H223.29V95.7473H215.659C215.499 93.2612 215.328 91.5894 215.167 90.7214C214.209 92.5479 212.745 94.0586 210.951 95.0722C209.119 96.0421 207.072 96.5324 205.001 96.4974C203.416 96.5786 201.832 96.3085 200.364 95.7065C198.895 95.1045 197.577 94.1854 196.504 93.0147C194.442 90.7 193.407 87.3066 193.4 82.8343V63.5453H202.026V79.9303C202.026 85.8527 203.927 88.814 207.73 88.814C208.698 88.8384 209.659 88.6315 210.531 88.2104C211.404 87.7892 212.164 87.1659 212.749 86.3921C214.142 84.42 214.822 82.0308 214.675 79.6195V63.5989Z" fill="#101010"/>
<path d="M230.449 63.5989V53.7186H239.139V63.5989H248.77V70.8645H239.139V82.3736C239.013 84.0789 239.385 85.7841 240.209 87.2816C240.609 87.8525 241.152 88.3083 241.782 88.6035C242.413 88.8988 243.111 89.023 243.805 88.964C245.269 88.9557 246.695 88.4995 247.893 87.6567L250.868 93.8613C248.727 95.6045 245.792 96.4761 242.06 96.4761C239.016 96.6193 236.025 95.6351 233.66 93.7113C231.519 91.8681 230.449 88.5675 230.449 83.8096V63.5989Z" fill="#101010"/>
<path d="M276.755 64.6812C278.95 65.9342 280.737 67.7946 281.902 70.0393C283.157 72.487 283.785 75.2079 283.732 77.9585C283.728 79.3137 283.602 80.6657 283.358 81.9985H262.019C262.225 84.0605 263.149 85.984 264.63 87.4316C266.03 88.6672 267.848 89.3225 269.713 89.2641C271.067 89.2874 272.402 88.9549 273.587 88.2996C274.742 87.6354 275.662 86.628 276.22 85.417L282.544 89.1355C281.648 91.5332 279.862 93.4913 277.557 94.6007C275.016 95.9057 272.194 96.568 269.339 96.5296C266.536 96.5504 263.771 95.8884 261.28 94.6007C258.77 93.2959 256.692 91.2894 255.298 88.8247C253.722 86.0038 252.938 82.8079 253.029 79.5767C252.939 76.3829 253.723 73.2252 255.298 70.4465C256.697 68.0249 258.748 66.0458 261.216 64.7348C263.664 63.4465 266.392 62.7839 269.157 62.8059C271.81 62.7505 274.431 63.3974 276.755 64.6812ZM264.576 71.4217C263.303 72.6321 262.455 74.2221 262.158 75.9546H274.936C274.889 74.2509 274.214 72.6248 273.041 71.3895C272.495 70.8633 271.849 70.4519 271.141 70.1796C270.434 69.9072 269.679 69.7793 268.921 69.8035C267.319 69.7652 265.764 70.3445 264.576 71.4217Z" fill="#101010"/>
<path d="M316.907 66.2994C318.969 68.6355 320 72.0397 320 76.5119V95.801H311.385V79.3088C311.385 73.4292 309.441 70.4894 305.553 70.4894C304.592 70.462 303.638 70.6645 302.771 71.0801C301.903 71.4957 301.147 72.1124 300.566 72.8791C299.19 74.8461 298.522 77.2227 298.672 79.6196V95.7581H290.057V63.6096H297.623C297.826 66.1279 298.008 67.8961 298.179 68.7641C300.241 64.7848 303.673 62.7952 308.474 62.7952C310.051 62.7204 311.625 62.9958 313.083 63.6016C314.541 64.2074 315.847 65.1287 316.907 66.2994Z" fill="#101010"/>
<path d="M42.649 92.2652H52.6033V70.0424C52.6091 65.9408 53.9646 61.9554 56.4599 58.7022C56.947 58.0619 57.4774 57.4559 58.0475 56.8884C59.7708 55.1577 61.8189 53.7853 64.074 52.85C66.3292 51.9147 68.7468 51.435 71.1878 51.4385H93.189C95.6286 51.4361 98.0446 51.9164 100.298 52.8516C102.552 53.7869 104.598 55.1588 106.321 56.8884C106.891 57.4559 107.421 58.0619 107.908 58.7022C110.416 61.9488 111.773 65.9386 111.765 70.0424V89.7173C111.785 92.5738 110.675 95.322 108.676 97.361L108.633 97.4042C107.769 98.2707 106.743 98.9579 105.613 99.4262C104.484 99.8946 103.273 100.135 102.05 100.133H86.209V58.6762H78.1764V86.5044C78.2126 88.5548 77.6094 90.5654 76.4508 92.2566C75.8464 93.1174 75.168 93.9237 74.4233 94.6663C72.698 96.3943 70.6495 97.765 68.3948 98.7001C66.1401 99.6352 63.7235 100.116 61.283 100.116H22V66.4322C22.0009 63.8277 22.2173 61.2277 22.6471 58.659C23.0606 56.1908 23.6782 53.7612 24.4935 51.3953C25.5872 48.1762 27.034 45.0883 28.8074 42.1884C32.9527 35.396 38.7753 29.7866 45.7145 25.9004C52.6537 22.0143 60.4756 19.9822 68.4269 20.0001H111.774V42.2315H70.4803C63.9417 42.2218 57.61 44.5252 52.6033 48.7351C51.9705 49.2649 51.3666 49.8176 50.7914 50.3934C50.4549 50.7303 50.1184 51.0844 49.7992 51.4385C45.1877 56.5588 42.6362 63.2088 42.638 70.1029L42.649 92.2652Z" fill="#3034F3"/>
</svg>
