<svg width="90" height="80" xmlns="http://www.w3.org/2000/svg" fill="none">

 <g>
  <title>Layer 1</title>
  <path id="svg_7" fill="#3034F3" d="m20.77721,72.39341l9.9543,0l0,-22.2228c0.0058,-4.1016 1.3613,-8.087 3.8566,-11.3402c0.4871,-0.6403 1.0175,-1.2463 1.5876,-1.8138c1.7233,-1.7307 3.7714,-3.1031 6.0265,-4.0384c2.2552,-0.9353 4.6728,-1.415 7.1138,-1.4115l22.0012,0c2.4396,-0.0024 4.8556,0.4779 7.109,1.4131c2.254,0.9353 4.3,2.3072 6.023,4.0368c0.57,0.5675 1.1,1.1735 1.587,1.8138c2.508,3.2466 3.865,7.2364 3.857,11.3402l0,19.6749c0.02,2.8565 -1.09,5.6047 -3.089,7.6437l-0.043,0.0432c-0.864,0.8665 -1.89,1.5537 -3.02,2.022c-1.129,0.4684 -2.34,0.7088 -3.563,0.7068l-15.841,0l0,-41.4568l-8.0326,0l0,27.8282c0.0362,2.0504 -0.567,4.061 -1.7256,5.7522c-0.6044,0.8608 -1.2828,1.6671 -2.0275,2.4097c-1.7253,1.728 -3.7738,3.0987 -6.0285,4.0338c-2.2547,0.9351 -4.6713,1.4159 -7.1118,1.4159l-39.283,0l0,-33.6838c0.0009,-2.6045 0.2173,-5.2045 0.6471,-7.7732c0.4135,-2.4682 1.0311,-4.8978 1.8464,-7.2637c1.0937,-3.2191 2.5405,-6.307 4.3139,-9.2069c4.1453,-6.7924 9.9679,-12.4018 16.9071,-16.288c6.9392,-3.8861 14.7611,-5.9182 22.7124,-5.9003l43.3471,0l0,22.2314l-41.2937,0c-6.5386,-0.0097 -12.8703,2.2937 -17.877,6.5036c-0.6328,0.5298 -1.2367,1.0825 -1.8119,1.6583c-0.3365,0.3369 -0.673,0.691 -0.9922,1.0451c-4.6115,5.1203 -7.163,11.7703 -7.1612,18.6644l0.011,22.1623z"/>
 </g>
</svg>